<?xml version="1.0" encoding="UTF-8" standalone="no"?>
<!DOCTYPE svg PUBLIC "-//W3C//DTD SVG 1.1//EN"
 "http://www.w3.org/Graphics/SVG/1.1/DTD/svg11.dtd">
<!-- Generated by graphviz version 2.38.0 (20140413.2041)
 -->
<!-- Title: %3 Pages: 1 -->
<svg width="62pt" height="260pt"
 viewBox="0.00 0.00 62.00 260.00" xmlns="http://www.w3.org/2000/svg" xmlns:xlink="http://www.w3.org/1999/xlink">
<g id="graph0" class="graph" transform="scale(1 1) rotate(0) translate(4 256)">
<title>%3</title>
<polygon fill="white" stroke="none" points="-4,4 -4,-256 58,-256 58,4 -4,4"/>
<!-- 1 -->
<g id="node1" class="node"><title>1</title>
<ellipse fill="yellow" stroke="yellow" cx="27" cy="-234" rx="27" ry="18"/>
<text text-anchor="middle" x="27" y="-230.3" font-family="Times New Roman,serif" font-size="14.00">1</text>
</g>
<!-- 2 -->
<g id="node2" class="node"><title>2</title>
<ellipse fill="green" stroke="green" cx="27" cy="-162" rx="27" ry="18"/>
<text text-anchor="middle" x="27" y="-158.3" font-family="Times New Roman,serif" font-size="14.00">2</text>
</g>
<!-- 1&#45;&gt;2 -->
<g id="edge1" class="edge"><title>1&#45;&gt;2</title>
<path fill="none" stroke="black" d="M27,-215.697C27,-207.983 27,-198.712 27,-190.112"/>
<polygon fill="black" stroke="black" points="30.5001,-190.104 27,-180.104 23.5001,-190.104 30.5001,-190.104"/>
</g>
<!-- 3 -->
<g id="node3" class="node"><title>3</title>
<ellipse fill="green" stroke="green" cx="27" cy="-90" rx="27" ry="18"/>
<text text-anchor="middle" x="27" y="-86.3" font-family="Times New Roman,serif" font-size="14.00">3</text>
</g>
<!-- 2&#45;&gt;3 -->
<g id="edge2" class="edge"><title>2&#45;&gt;3</title>
<path fill="none" stroke="black" d="M21.1601,-144.411C20.2975,-136.507 20.0481,-126.852 20.4119,-117.935"/>
<polygon fill="black" stroke="black" points="23.9033,-118.179 21.1206,-107.956 16.9209,-117.683 23.9033,-118.179"/>
</g>
<!-- 3&#45;&gt;2 -->
<g id="edge3" class="edge"><title>3&#45;&gt;2</title>
<path fill="none" stroke="black" d="M32.8794,-107.956C33.7139,-115.827 33.9485,-125.374 33.5831,-134.187"/>
<polygon fill="black" stroke="black" points="30.0742,-134.184 32.8399,-144.411 37.0558,-134.691 30.0742,-134.184"/>
</g>
<!-- 4 -->
<g id="node4" class="node"><title>4</title>
<ellipse fill="none" stroke="black" cx="27" cy="-18" rx="27" ry="18"/>
<text text-anchor="middle" x="27" y="-14.3" font-family="Times New Roman,serif" font-size="14.00">4</text>
</g>
<!-- 3&#45;&gt;4 -->
<g id="edge4" class="edge"><title>3&#45;&gt;4</title>
<path fill="none" stroke="black" d="M27,-71.6966C27,-63.9827 27,-54.7125 27,-46.1124"/>
<polygon fill="black" stroke="black" points="30.5001,-46.1043 27,-36.1043 23.5001,-46.1044 30.5001,-46.1043"/>
</g>
</g>
</svg>
