<svg xmlns:rdf="http://www.w3.org/1999/02/22-rdf-syntax-ns#" xmlns="http://www.w3.org/2000/svg" height="26" width="163" version="1.1" xmlns:cc="http://creativecommons.org/ns#" xmlns:xlink="http://www.w3.org/1999/xlink" xmlns:dc="http://purl.org/dc/elements/1.1/">
	<metadata>
		<rdf:RDF>
			<cc:Work rdf:about="">
				<dc:format>image/svg+xml</dc:format>
				<dc:type rdf:resource="http://purl.org/dc/dcmitype/StillImage"/>
				<dc:title/>
			</cc:Work>
		</rdf:RDF>
	</metadata>
	<g fill="#FFF" transform="scale(0.81249999,0.81249999)">
		<path d="M3.63,7.33c0-1.75,1.01-3.59,4.37-3.59,1.68,0,3.66,0.51,5.49,1.56l0.16-3.12c-1.68-0.74-3.51-1.13-5.65-1.13-5.46,0-7.8,2.89-7.8,6.43,0,6.63,10.37,7.25,10.37,11.73,0,1.75-1.36,3.59-4.56,3.59-2.03,0-4.01-0.66-5.57-1.64l-0.43,3.12c1.83,0.89,4.21,1.25,6.08,1.25,5.03,0,7.91-2.93,7.91-6.51,0-6.27-10.37-7.13-10.37-11.69"/>
		<path id="c" d="m23.07,9.82c0.27-0.15,0.82-0.31,2.03-0.31,2.03,0,2.85,0.35,2.85,1.87h2.81c0-0.43,0-0.93-0.04-1.28-0.27-2.34-2.53-3.16-5.77-3.16-3.55,0-7.91,2.73-7.91,9.16,0,6.16,3.27,9.43,7.83,9.43,1.99,0,4.09-0.43,5.85-1.64l-0.23-2.73c-1.17,0.97-3.35,1.79-4.79,1.79-2.53,0-5.38-2.03-5.38-6.98,0-4.75,2.46-5.96,2.77-6.16"/>
		<path id="i" d="m35.35,0c-1.09,0-1.95,1.09-1.95,2.14,0,1.09,0.9,2.19,1.95,2.19s1.99-1.13,1.99-2.22c-0.001-1.09-0.94-2.11-1.99-2.11m-1.48,25.06,3,0,0-17.66-3,0,0,17.66z"/>
		<path id="e" d="m46.26,10.02c0.19-0.2,1.52-0.55,2.34-0.55,2.92,0,4.44,0.62,4.56,4.06h-8.81c0.31-2.22,1.68-3.28,1.91-3.51zm9.63,5.85c0-6.12-1.68-8.93-7.09-8.93-4.56,0-7.87,3.27-7.87,9.35,0,5.81,3.51,9.24,7.95,9.24,3.31,0,5.14-0.74,6.7-1.68l-0.24-2.73c-1.05,0.94-3.47,1.83-5.53,1.83-3.7,0-5.77-2.3-5.77-6.51v-0.58h11.85"/>
		<path d="m68.59,6.94c-2.65,0-4.29,1.33-5.73,3.08l-0.47-2.61h-2.77l0.16,1.4c0.12,0.9,0.16,2.11,0.16,3.51v12.75h3v-11.85c0.82-1.13,2.53-2.93,2.92-3.12,0.27-0.16,1.52-0.47,2.46-0.47,2.69,0,2.92,1.36,3,4.05,0.04,1.4,0.04,3.74,0.04,3.74,0.04,3.55-0.12,7.64-0.12,7.64h3s0.08-5.3,0.08-8.23c0-1.75,0.04-3.51-0.12-5.26-0.31-3.63-2.45-4.64-5.61-4.64"/>
		<path d="m120.93,22.57-4.44,0,0-18.55,4.83,0c6.35,0,8.22,5.18,8.22,9.2,0,5.88-2.65,9.35-8.61,9.35zm0.9-21.05-8.42,0,0,23.54,8.07,0c8.57,0,11.54-6.71,11.54-11.85,0-5.38-2.88-11.69-11.19-11.69"/>
		<path d="m152.89,6.98c-1.91,0-3.39,1.71-4.01,3.23l-0.51-2.8h-2.77l0.16,1.4c0.12,0.9,0.16,2.07,0.16,3.43v12.82h3v-11.23c0.62-1.52,2.03-4.37,3.74-4.37,1.13,0,1.25,1.17,1.25,1.44l2.46-0.7v-0.19c0-0.04-0.04-0.2-0.08-0.47-0.31-1.67-1.37-2.57-3.39-2.57"/>
		<path d="m199.89,22.14c-1.09,0.43-2.03,0.82-2.96,0.82-1.37,0-1.87-0.78-1.87-2.77v-10.44h4.64v-2.34h-4.64v-4.72h-2.92v4.72h-3.2v2.34h3.2v11.42c0,3.12,1.64,4.4,3.93,4.4,1.36,0,3-0.47,4.05-0.93l-0.24-2.5"/>
		<use xlink:href="#c" height="32" width="202" y="0" x="157.00999"/>
		<use xlink:href="#e" height="32" width="202" y="0" x="115.51"/>
		<use xlink:href="#i" height="32" width="202" y="0" x="103.58"/>
		<use xlink:href="#e" height="32" width="202" y="0" x="52.77"/>
		<use xlink:href="#c" height="32" width="202" y="0" x="61.23"/>
	</g>
</svg>