<?xml version="1.0" encoding="UTF-8" standalone="no"?>
<!DOCTYPE svg PUBLIC "-//W3C//DTD SVG 1.1//EN"
 "http://www.w3.org/Graphics/SVG/1.1/DTD/svg11.dtd">
<!-- Generated by graphviz version 2.38.0 (20140413.2041)
 -->
<!-- Title: G Pages: 1 -->
<svg width="152pt" height="656pt"
 viewBox="0.00 0.00 151.55 656.00" xmlns="http://www.w3.org/2000/svg" xmlns:xlink="http://www.w3.org/1999/xlink">
<g id="graph0" class="graph" transform="scale(1 1) rotate(0) translate(4 652)">
<title>G</title>
<polygon fill="white" stroke="none" points="-4,4 -4,-652 147.546,-652 147.546,4 -4,4"/>
<!-- CAGCA -->
<g id="node1" class="node"><title>CAGCA</title>
<ellipse fill="green" stroke="green" cx="43.5461" cy="-324" rx="42.7926" ry="18"/>
<text text-anchor="middle" x="43.5461" y="-320.3" font-family="Times New Roman,serif" font-size="14.00">CAGCA</text>
</g>
<!-- GCAGT -->
<g id="node3" class="node"><title>GCAGT</title>
<ellipse fill="green" stroke="green" cx="43.5461" cy="-222" rx="42.7926" ry="18"/>
<text text-anchor="middle" x="43.5461" y="-218.3" font-family="Times New Roman,serif" font-size="14.00">GCAGT</text>
</g>
<!-- CAGCA&#45;&gt;GCAGT -->
<g id="edge5" class="edge"><title>CAGCA&#45;&gt;GCAGT</title>
<path fill="none" stroke="yellow" d="M43.5461,-305.581C43.5461,-290.382 43.5461,-268.067 43.5461,-250.464"/>
<polygon fill="yellow" stroke="yellow" points="47.0462,-250.219 43.5461,-240.219 40.0462,-250.219 47.0462,-250.219"/>
<text text-anchor="middle" x="93.5461" y="-276.8" font-family="Times New Roman,serif" font-size="14.00">L: 2; W: 0;</text>
<text text-anchor="middle" x="93.5461" y="-261.8" font-family="Times New Roman,serif" font-size="14.00">P: 0.000000; M: 1</text>
</g>
<!-- AGCAG -->
<g id="node2" class="node"><title>AGCAG</title>
<ellipse fill="green" stroke="green" cx="43.5461" cy="-528" rx="43.5923" ry="18"/>
<text text-anchor="middle" x="43.5461" y="-524.3" font-family="Times New Roman,serif" font-size="14.00">AGCAG</text>
</g>
<!-- GCAGC -->
<g id="node6" class="node"><title>GCAGC</title>
<ellipse fill="green" stroke="green" cx="43.5461" cy="-426" rx="43.5923" ry="18"/>
<text text-anchor="middle" x="43.5461" y="-422.3" font-family="Times New Roman,serif" font-size="14.00">GCAGC</text>
</g>
<!-- AGCAG&#45;&gt;GCAGC -->
<g id="edge1" class="edge"><title>AGCAG&#45;&gt;GCAGC</title>
<path fill="none" stroke="green" d="M43.5461,-509.581C43.5461,-494.382 43.5461,-472.067 43.5461,-454.464"/>
<polygon fill="green" stroke="green" points="47.0462,-454.219 43.5461,-444.219 40.0462,-454.219 47.0462,-454.219"/>
<text text-anchor="middle" x="93.5461" y="-480.8" font-family="Times New Roman,serif" font-size="14.00">L: 1; W: 0;</text>
<text text-anchor="middle" x="93.5461" y="-465.8" font-family="Times New Roman,serif" font-size="14.00">P: 0.000000; M: 1</text>
</g>
<!-- CAGTT -->
<g id="node4" class="node"><title>CAGTT</title>
<ellipse fill="green" stroke="green" cx="43.5461" cy="-120" rx="42.4939" ry="18"/>
<text text-anchor="middle" x="43.5461" y="-116.3" font-family="Times New Roman,serif" font-size="14.00">CAGTT</text>
</g>
<!-- GCAGT&#45;&gt;CAGTT -->
<g id="edge6" class="edge"><title>GCAGT&#45;&gt;CAGTT</title>
<path fill="none" stroke="green" d="M43.5461,-203.581C43.5461,-188.382 43.5461,-166.067 43.5461,-148.464"/>
<polygon fill="green" stroke="green" points="47.0462,-148.219 43.5461,-138.219 40.0462,-148.219 47.0462,-148.219"/>
<text text-anchor="middle" x="93.5461" y="-174.8" font-family="Times New Roman,serif" font-size="14.00">L: 1; W: 0;</text>
<text text-anchor="middle" x="93.5461" y="-159.8" font-family="Times New Roman,serif" font-size="14.00">P: 0.000000; M: 1</text>
</g>
<!-- AGTTE -->
<g id="node7" class="node"><title>AGTTE</title>
<ellipse fill="blue" stroke="blue" cx="43.5461" cy="-18" rx="40.8928" ry="18"/>
<text text-anchor="middle" x="43.5461" y="-14.3" font-family="Times New Roman,serif" font-size="14.00">AGTTE</text>
</g>
<!-- CAGTT&#45;&gt;AGTTE -->
<g id="edge2" class="edge"><title>CAGTT&#45;&gt;AGTTE</title>
<path fill="none" stroke="green" d="M43.5461,-101.581C43.5461,-86.3816 43.5461,-64.0669 43.5461,-46.4644"/>
<polygon fill="green" stroke="green" points="47.0462,-46.219 43.5461,-36.2191 40.0462,-46.2191 47.0462,-46.219"/>
<text text-anchor="middle" x="93.5461" y="-72.8" font-family="Times New Roman,serif" font-size="14.00">L: 1; W: 0;</text>
<text text-anchor="middle" x="93.5461" y="-57.8" font-family="Times New Roman,serif" font-size="14.00">P: 0.000000; M: 1</text>
</g>
<!-- BAGCA -->
<g id="node5" class="node"><title>BAGCA</title>
<ellipse fill="yellow" stroke="yellow" cx="43.5461" cy="-630" rx="42.4939" ry="18"/>
<text text-anchor="middle" x="43.5461" y="-626.3" font-family="Times New Roman,serif" font-size="14.00">BAGCA</text>
</g>
<!-- BAGCA&#45;&gt;AGCAG -->
<g id="edge4" class="edge"><title>BAGCA&#45;&gt;AGCAG</title>
<path fill="none" stroke="green" d="M43.5461,-611.581C43.5461,-596.382 43.5461,-574.067 43.5461,-556.464"/>
<polygon fill="green" stroke="green" points="47.0462,-556.219 43.5461,-546.219 40.0462,-556.219 47.0462,-556.219"/>
<text text-anchor="middle" x="93.5461" y="-582.8" font-family="Times New Roman,serif" font-size="14.00">L: 1; W: 0;</text>
<text text-anchor="middle" x="93.5461" y="-567.8" font-family="Times New Roman,serif" font-size="14.00">P: 0.000000; M: 1</text>
</g>
<!-- GCAGC&#45;&gt;CAGCA -->
<g id="edge3" class="edge"><title>GCAGC&#45;&gt;CAGCA</title>
<path fill="none" stroke="green" d="M43.5461,-407.581C43.5461,-392.382 43.5461,-370.067 43.5461,-352.464"/>
<polygon fill="green" stroke="green" points="47.0462,-352.219 43.5461,-342.219 40.0462,-352.219 47.0462,-352.219"/>
<text text-anchor="middle" x="93.5461" y="-378.8" font-family="Times New Roman,serif" font-size="14.00">L: 1; W: 0;</text>
<text text-anchor="middle" x="93.5461" y="-363.8" font-family="Times New Roman,serif" font-size="14.00">P: 0.000000; M: 1</text>
</g>
</g>
</svg>
