<?xml version="1.0" encoding="UTF-8" standalone="no"?>
<!DOCTYPE svg PUBLIC "-//W3C//DTD SVG 1.1//EN"
 "http://www.w3.org/Graphics/SVG/1.1/DTD/svg11.dtd">
<!-- Generated by graphviz version 2.38.0 (20140413.2041)
 -->
<!-- Title: G Pages: 1 -->
<svg width="301pt" height="452pt"
 viewBox="0.00 0.00 300.55 452.00" xmlns="http://www.w3.org/2000/svg" xmlns:xlink="http://www.w3.org/1999/xlink">
<g id="graph0" class="graph" transform="scale(1 1) rotate(0) translate(4 448)">
<title>G</title>
<polygon fill="white" stroke="none" points="-4,4 -4,-448 296.546,-448 296.546,4 -4,4"/>
<!-- CAGCA -->
<g id="node1" class="node"><title>CAGCA</title>
<ellipse fill="green" stroke="green" cx="45.5461" cy="-426" rx="42.7926" ry="18"/>
<text text-anchor="middle" x="45.5461" y="-422.3" font-family="Times New Roman,serif" font-size="14.00">CAGCA</text>
</g>
<!-- AGCAG -->
<g id="node2" class="node"><title>AGCAG</title>
<ellipse fill="green" stroke="green" cx="188.546" cy="-324" rx="43.5923" ry="18"/>
<text text-anchor="middle" x="188.546" y="-320.3" font-family="Times New Roman,serif" font-size="14.00">AGCAG</text>
</g>
<!-- CAGCA&#45;&gt;AGCAG -->
<g id="edge4" class="edge"><title>CAGCA&#45;&gt;AGCAG</title>
<path fill="none" stroke="red" d="M51.7872,-408.03C57.9917,-393.374 68.8582,-372.622 84.5461,-360 89.5805,-355.95 118.487,-346.363 144.55,-338.245"/>
<polygon fill="red" stroke="red" points="145.822,-341.515 154.344,-335.22 143.756,-334.827 145.822,-341.515"/>
<text text-anchor="middle" x="134.546" y="-378.8" font-family="Times New Roman,serif" font-size="14.00">L: 1; W: 0;</text>
<text text-anchor="middle" x="134.546" y="-363.8" font-family="Times New Roman,serif" font-size="14.00">P: 0.000000; M: 1</text>
</g>
<!-- GCAGT -->
<g id="node3" class="node"><title>GCAGT</title>
<ellipse fill="green" stroke="green" cx="188.546" cy="-222" rx="42.7926" ry="18"/>
<text text-anchor="middle" x="188.546" y="-218.3" font-family="Times New Roman,serif" font-size="14.00">GCAGT</text>
</g>
<!-- AGCAG&#45;&gt;GCAGT -->
<g id="edge3" class="edge"><title>AGCAG&#45;&gt;GCAGT</title>
<path fill="none" stroke="green" d="M188.546,-305.581C188.546,-290.382 188.546,-268.067 188.546,-250.464"/>
<polygon fill="green" stroke="green" points="192.046,-250.219 188.546,-240.219 185.046,-250.219 192.046,-250.219"/>
<text text-anchor="middle" x="240.546" y="-276.8" font-family="Times New Roman,serif" font-size="14.00">L: 1; W: 0;</text>
<text text-anchor="middle" x="240.546" y="-261.8" font-family="Times New Roman,serif" font-size="14.00">P: &#45;0.693147; M: 1</text>
</g>
<!-- GCAGC -->
<g id="node6" class="node"><title>GCAGC</title>
<ellipse fill="green" stroke="green" cx="43.5461" cy="-222" rx="43.5923" ry="18"/>
<text text-anchor="middle" x="43.5461" y="-218.3" font-family="Times New Roman,serif" font-size="14.00">GCAGC</text>
</g>
<!-- AGCAG&#45;&gt;GCAGC -->
<g id="edge1" class="edge"><title>AGCAG&#45;&gt;GCAGC</title>
<path fill="none" stroke="green" d="M154.51,-312.62C123.997,-303.214 83.5648,-290.458 80.5461,-288 68.2695,-278.004 59.2941,-262.786 53.2602,-249.587"/>
<polygon fill="green" stroke="green" points="56.329,-247.858 49.2133,-240.008 49.8807,-250.582 56.329,-247.858"/>
<text text-anchor="middle" x="132.546" y="-276.8" font-family="Times New Roman,serif" font-size="14.00">L: 1; W: 0;</text>
<text text-anchor="middle" x="132.546" y="-261.8" font-family="Times New Roman,serif" font-size="14.00">P: &#45;0.693147; M: 1</text>
</g>
<!-- CAGTT -->
<g id="node4" class="node"><title>CAGTT</title>
<ellipse fill="green" stroke="green" cx="188.546" cy="-120" rx="42.4939" ry="18"/>
<text text-anchor="middle" x="188.546" y="-116.3" font-family="Times New Roman,serif" font-size="14.00">CAGTT</text>
</g>
<!-- GCAGT&#45;&gt;CAGTT -->
<g id="edge7" class="edge"><title>GCAGT&#45;&gt;CAGTT</title>
<path fill="none" stroke="green" d="M188.546,-203.581C188.546,-188.382 188.546,-166.067 188.546,-148.464"/>
<polygon fill="green" stroke="green" points="192.046,-148.219 188.546,-138.219 185.046,-148.219 192.046,-148.219"/>
<text text-anchor="middle" x="238.546" y="-174.8" font-family="Times New Roman,serif" font-size="14.00">L: 1; W: 0;</text>
<text text-anchor="middle" x="238.546" y="-159.8" font-family="Times New Roman,serif" font-size="14.00">P: 0.000000; M: 1</text>
</g>
<!-- AGTTE -->
<g id="node7" class="node"><title>AGTTE</title>
<ellipse fill="blue" stroke="blue" cx="188.546" cy="-18" rx="40.8928" ry="18"/>
<text text-anchor="middle" x="188.546" y="-14.3" font-family="Times New Roman,serif" font-size="14.00">AGTTE</text>
</g>
<!-- CAGTT&#45;&gt;AGTTE -->
<g id="edge2" class="edge"><title>CAGTT&#45;&gt;AGTTE</title>
<path fill="none" stroke="green" d="M188.546,-101.581C188.546,-86.3816 188.546,-64.0669 188.546,-46.4644"/>
<polygon fill="green" stroke="green" points="192.046,-46.219 188.546,-36.2191 185.046,-46.2191 192.046,-46.219"/>
<text text-anchor="middle" x="238.546" y="-72.8" font-family="Times New Roman,serif" font-size="14.00">L: 1; W: 0;</text>
<text text-anchor="middle" x="238.546" y="-57.8" font-family="Times New Roman,serif" font-size="14.00">P: 0.000000; M: 1</text>
</g>
<!-- BAGCA -->
<g id="node5" class="node"><title>BAGCA</title>
<ellipse fill="yellow" stroke="yellow" cx="188.546" cy="-426" rx="42.4939" ry="18"/>
<text text-anchor="middle" x="188.546" y="-422.3" font-family="Times New Roman,serif" font-size="14.00">BAGCA</text>
</g>
<!-- BAGCA&#45;&gt;AGCAG -->
<g id="edge6" class="edge"><title>BAGCA&#45;&gt;AGCAG</title>
<path fill="none" stroke="green" d="M188.546,-407.581C188.546,-392.382 188.546,-370.067 188.546,-352.464"/>
<polygon fill="green" stroke="green" points="192.046,-352.219 188.546,-342.219 185.046,-352.219 192.046,-352.219"/>
<text text-anchor="middle" x="238.546" y="-378.8" font-family="Times New Roman,serif" font-size="14.00">L: 1; W: 0;</text>
<text text-anchor="middle" x="238.546" y="-363.8" font-family="Times New Roman,serif" font-size="14.00">P: 0.000000; M: 1</text>
</g>
<!-- GCAGC&#45;&gt;CAGCA -->
<g id="edge5" class="edge"><title>GCAGC&#45;&gt;CAGCA</title>
<path fill="none" stroke="green" d="M40.9982,-240.338C37.9106,-263.502 33.375,-305.829 35.5461,-342 36.6625,-360.599 39.1739,-381.416 41.4005,-397.55"/>
<polygon fill="green" stroke="green" points="37.9979,-398.481 42.8758,-407.886 44.9276,-397.492 37.9979,-398.481"/>
<text text-anchor="middle" x="85.5461" y="-327.8" font-family="Times New Roman,serif" font-size="14.00">L: 1; W: 0;</text>
<text text-anchor="middle" x="85.5461" y="-312.8" font-family="Times New Roman,serif" font-size="14.00">P: 0.000000; M: 1</text>
</g>
</g>
</svg>
