<?xml version="1.0" encoding="UTF-8" standalone="no"?>
<!DOCTYPE svg PUBLIC "-//W3C//DTD SVG 1.1//EN"
 "http://www.w3.org/Graphics/SVG/1.1/DTD/svg11.dtd">
<!-- Generated by graphviz version 2.38.0 (20140413.2041)
 -->
<!-- Title: G Pages: 1 -->
<svg width="275pt" height="1064pt"
 viewBox="0.00 0.00 274.90 1064.00" xmlns="http://www.w3.org/2000/svg" xmlns:xlink="http://www.w3.org/1999/xlink">
<g id="graph0" class="graph" transform="scale(1 1) rotate(0) translate(4 1060)">
<title>G</title>
<polygon fill="white" stroke="none" points="-4,4 -4,-1060 270.896,-1060 270.896,4 -4,4"/>
<!-- CTCCG -->
<g id="node1" class="node"><title>CTCCG</title>
<ellipse fill="green" stroke="green" cx="165.896" cy="-630" rx="42.4939" ry="18"/>
<text text-anchor="middle" x="165.896" y="-626.3" font-family="Times New Roman,serif" font-size="14.00">CTCCG</text>
</g>
<!-- TCCGA -->
<g id="node10" class="node"><title>TCCGA</title>
<ellipse fill="green" stroke="green" cx="165.896" cy="-528" rx="42.4939" ry="18"/>
<text text-anchor="middle" x="165.896" y="-524.3" font-family="Times New Roman,serif" font-size="14.00">TCCGA</text>
</g>
<!-- CTCCG&#45;&gt;TCCGA -->
<g id="edge2" class="edge"><title>CTCCG&#45;&gt;TCCGA</title>
<path fill="none" stroke="green" d="M165.896,-611.581C165.896,-596.382 165.896,-574.067 165.896,-556.464"/>
<polygon fill="green" stroke="green" points="169.396,-556.219 165.896,-546.219 162.396,-556.219 169.396,-556.219"/>
<text text-anchor="middle" x="215.896" y="-582.8" font-family="Times New Roman,serif" font-size="14.00">L: 1; W: 1;</text>
<text text-anchor="middle" x="215.896" y="-567.8" font-family="Times New Roman,serif" font-size="14.00">P: 0.000000; M: 1</text>
</g>
<!-- GACGT -->
<g id="node2" class="node"><title>GACGT</title>
<ellipse fill="green" stroke="green" cx="103.896" cy="-222" rx="42.7926" ry="18"/>
<text text-anchor="middle" x="103.896" y="-218.3" font-family="Times New Roman,serif" font-size="14.00">GACGT</text>
</g>
<!-- ACGTA -->
<g id="node8" class="node"><title>ACGTA</title>
<ellipse fill="green" stroke="green" cx="103.896" cy="-120" rx="42.4939" ry="18"/>
<text text-anchor="middle" x="103.896" y="-116.3" font-family="Times New Roman,serif" font-size="14.00">ACGTA</text>
</g>
<!-- GACGT&#45;&gt;ACGTA -->
<g id="edge1" class="edge"><title>GACGT&#45;&gt;ACGTA</title>
<path fill="none" stroke="green" d="M103.896,-203.581C103.896,-188.382 103.896,-166.067 103.896,-148.464"/>
<polygon fill="green" stroke="green" points="107.396,-148.219 103.896,-138.219 100.396,-148.219 107.396,-148.219"/>
<text text-anchor="middle" x="153.896" y="-174.8" font-family="Times New Roman,serif" font-size="14.00">L: 1; W: 0;</text>
<text text-anchor="middle" x="153.896" y="-159.8" font-family="Times New Roman,serif" font-size="14.00">P: 0.000000; M: 1</text>
</g>
<!-- ACGCT -->
<g id="node3" class="node"><title>ACGCT</title>
<ellipse fill="green" stroke="green" cx="103.896" cy="-936" rx="42.4939" ry="18"/>
<text text-anchor="middle" x="103.896" y="-932.3" font-family="Times New Roman,serif" font-size="14.00">ACGCT</text>
</g>
<!-- CGCTA -->
<g id="node14" class="node"><title>CGCTA</title>
<ellipse fill="red" stroke="red" cx="42.8962" cy="-834" rx="42.4939" ry="18"/>
<text text-anchor="middle" x="42.8962" y="-830.3" font-family="Times New Roman,serif" font-size="14.00">CGCTA</text>
</g>
<!-- ACGCT&#45;&gt;CGCTA -->
<g id="edge4" class="edge"><title>ACGCT&#45;&gt;CGCTA</title>
<path fill="none" stroke="red" d="M71.1344,-924.377C59.8252,-918.959 48.3775,-911.102 41.8962,-900 35.3386,-888.768 34.8877,-874.476 36.3742,-862.156"/>
<polygon fill="red" stroke="red" points="39.8814,-862.402 38.0746,-851.963 32.9768,-861.25 39.8814,-862.402"/>
<text text-anchor="middle" x="93.8962" y="-888.8" font-family="Times New Roman,serif" font-size="14.00">L: 1; W: 1;</text>
<text text-anchor="middle" x="93.8962" y="-873.8" font-family="Times New Roman,serif" font-size="14.00">P: &#45;0.405465; M: 0</text>
</g>
<!-- CGCTC -->
<g id="node16" class="node"><title>CGCTC</title>
<ellipse fill="green" stroke="green" cx="166.896" cy="-834" rx="42.4939" ry="18"/>
<text text-anchor="middle" x="166.896" y="-830.3" font-family="Times New Roman,serif" font-size="14.00">CGCTC</text>
</g>
<!-- ACGCT&#45;&gt;CGCTC -->
<g id="edge3" class="edge"><title>ACGCT&#45;&gt;CGCTC</title>
<path fill="none" stroke="green" d="M126.192,-920.268C133.312,-914.642 140.688,-907.707 145.896,-900 153.574,-888.639 158.6,-874.281 161.804,-861.95"/>
<polygon fill="green" stroke="green" points="165.219,-862.714 164.084,-852.18 158.403,-861.123 165.219,-862.714"/>
<text text-anchor="middle" x="211.896" y="-888.8" font-family="Times New Roman,serif" font-size="14.00">L: 1; W: 0;</text>
<text text-anchor="middle" x="211.896" y="-873.8" font-family="Times New Roman,serif" font-size="14.00">P: &#45;1.098612; M: 1</text>
</g>
<!-- TACGA -->
<g id="node4" class="node"><title>TACGA</title>
<ellipse fill="red" stroke="red" cx="42.8962" cy="-528" rx="42.4939" ry="18"/>
<text text-anchor="middle" x="42.8962" y="-524.3" font-family="Times New Roman,serif" font-size="14.00">TACGA</text>
</g>
<!-- ACGAC -->
<g id="node11" class="node"><title>ACGAC</title>
<ellipse fill="red" stroke="red" cx="42.8962" cy="-426" rx="42.7926" ry="18"/>
<text text-anchor="middle" x="42.8962" y="-422.3" font-family="Times New Roman,serif" font-size="14.00">ACGAC</text>
</g>
<!-- TACGA&#45;&gt;ACGAC -->
<g id="edge9" class="edge"><title>TACGA&#45;&gt;ACGAC</title>
<path fill="none" stroke="red" d="M42.8962,-509.581C42.8962,-494.382 42.8962,-472.067 42.8962,-454.464"/>
<polygon fill="red" stroke="red" points="46.3963,-454.219 42.8962,-444.219 39.3963,-454.219 46.3963,-454.219"/>
<text text-anchor="middle" x="92.8962" y="-480.8" font-family="Times New Roman,serif" font-size="14.00">L: 1; W: 1;</text>
<text text-anchor="middle" x="92.8962" y="-465.8" font-family="Times New Roman,serif" font-size="14.00">P: 0.000000; M: 0</text>
</g>
<!-- CTACG -->
<g id="node5" class="node"><title>CTACG</title>
<ellipse fill="red" stroke="red" cx="42.8962" cy="-630" rx="42.4939" ry="18"/>
<text text-anchor="middle" x="42.8962" y="-626.3" font-family="Times New Roman,serif" font-size="14.00">CTACG</text>
</g>
<!-- CTACG&#45;&gt;TACGA -->
<g id="edge12" class="edge"><title>CTACG&#45;&gt;TACGA</title>
<path fill="none" stroke="red" d="M42.8962,-611.581C42.8962,-596.382 42.8962,-574.067 42.8962,-556.464"/>
<polygon fill="red" stroke="red" points="46.3963,-556.219 42.8962,-546.219 39.3963,-556.219 46.3963,-556.219"/>
<text text-anchor="middle" x="92.8962" y="-582.8" font-family="Times New Roman,serif" font-size="14.00">L: 1; W: 1;</text>
<text text-anchor="middle" x="92.8962" y="-567.8" font-family="Times New Roman,serif" font-size="14.00">P: 0.000000; M: 0</text>
</g>
<!-- CCGAC -->
<g id="node6" class="node"><title>CCGAC</title>
<ellipse fill="green" stroke="green" cx="165.896" cy="-426" rx="42.7926" ry="18"/>
<text text-anchor="middle" x="165.896" y="-422.3" font-family="Times New Roman,serif" font-size="14.00">CCGAC</text>
</g>
<!-- CGACG -->
<g id="node15" class="node"><title>CGACG</title>
<ellipse fill="green" stroke="green" cx="103.896" cy="-324" rx="43.5923" ry="18"/>
<text text-anchor="middle" x="103.896" y="-320.3" font-family="Times New Roman,serif" font-size="14.00">CGACG</text>
</g>
<!-- CCGAC&#45;&gt;CGACG -->
<g id="edge10" class="edge"><title>CCGAC&#45;&gt;CGACG</title>
<path fill="none" stroke="green" d="M162.685,-407.882C159.516,-394.094 153.694,-374.659 143.896,-360 140.756,-355.301 136.828,-350.847 132.67,-346.79"/>
<polygon fill="green" stroke="green" points="134.834,-344.029 125.056,-339.948 130.155,-349.235 134.834,-344.029"/>
<text text-anchor="middle" x="207.896" y="-378.8" font-family="Times New Roman,serif" font-size="14.00">L: 1; W: 0;</text>
<text text-anchor="middle" x="207.896" y="-363.8" font-family="Times New Roman,serif" font-size="14.00">P: 0.000000; M: 1</text>
</g>
<!-- BACGC -->
<g id="node7" class="node"><title>BACGC</title>
<ellipse fill="yellow" stroke="yellow" cx="103.896" cy="-1038" rx="42.4939" ry="18"/>
<text text-anchor="middle" x="103.896" y="-1034.3" font-family="Times New Roman,serif" font-size="14.00">BACGC</text>
</g>
<!-- BACGC&#45;&gt;ACGCT -->
<g id="edge13" class="edge"><title>BACGC&#45;&gt;ACGCT</title>
<path fill="none" stroke="green" d="M103.896,-1019.58C103.896,-1004.38 103.896,-982.067 103.896,-964.464"/>
<polygon fill="green" stroke="green" points="107.396,-964.219 103.896,-954.219 100.396,-964.219 107.396,-964.219"/>
<text text-anchor="middle" x="153.896" y="-990.8" font-family="Times New Roman,serif" font-size="14.00">L: 1; W: 0;</text>
<text text-anchor="middle" x="153.896" y="-975.8" font-family="Times New Roman,serif" font-size="14.00">P: 0.000000; M: 1</text>
</g>
<!-- CGTAE -->
<g id="node13" class="node"><title>CGTAE</title>
<ellipse fill="blue" stroke="blue" cx="103.896" cy="-18" rx="41.6928" ry="18"/>
<text text-anchor="middle" x="103.896" y="-14.3" font-family="Times New Roman,serif" font-size="14.00">CGTAE</text>
</g>
<!-- ACGTA&#45;&gt;CGTAE -->
<g id="edge16" class="edge"><title>ACGTA&#45;&gt;CGTAE</title>
<path fill="none" stroke="green" d="M103.896,-101.581C103.896,-86.3816 103.896,-64.0669 103.896,-46.4644"/>
<polygon fill="green" stroke="green" points="107.396,-46.219 103.896,-36.2191 100.396,-46.2191 107.396,-46.219"/>
<text text-anchor="middle" x="153.896" y="-72.8" font-family="Times New Roman,serif" font-size="14.00">L: 1; W: 0;</text>
<text text-anchor="middle" x="153.896" y="-57.8" font-family="Times New Roman,serif" font-size="14.00">P: 0.000000; M: 1</text>
</g>
<!-- GCTAC -->
<g id="node9" class="node"><title>GCTAC</title>
<ellipse fill="red" stroke="red" cx="42.8962" cy="-732" rx="42.4939" ry="18"/>
<text text-anchor="middle" x="42.8962" y="-728.3" font-family="Times New Roman,serif" font-size="14.00">GCTAC</text>
</g>
<!-- GCTAC&#45;&gt;CTACG -->
<g id="edge14" class="edge"><title>GCTAC&#45;&gt;CTACG</title>
<path fill="none" stroke="red" d="M42.8962,-713.581C42.8962,-698.382 42.8962,-676.067 42.8962,-658.464"/>
<polygon fill="red" stroke="red" points="46.3963,-658.219 42.8962,-648.219 39.3963,-658.219 46.3963,-658.219"/>
<text text-anchor="middle" x="92.8962" y="-684.8" font-family="Times New Roman,serif" font-size="14.00">L: 1; W: 1;</text>
<text text-anchor="middle" x="92.8962" y="-669.8" font-family="Times New Roman,serif" font-size="14.00">P: 0.000000; M: 0</text>
</g>
<!-- TCCGA&#45;&gt;CCGAC -->
<g id="edge6" class="edge"><title>TCCGA&#45;&gt;CCGAC</title>
<path fill="none" stroke="green" d="M165.896,-509.581C165.896,-494.382 165.896,-472.067 165.896,-454.464"/>
<polygon fill="green" stroke="green" points="169.396,-454.219 165.896,-444.219 162.396,-454.219 169.396,-454.219"/>
<text text-anchor="middle" x="215.896" y="-480.8" font-family="Times New Roman,serif" font-size="14.00">L: 1; W: 0;</text>
<text text-anchor="middle" x="215.896" y="-465.8" font-family="Times New Roman,serif" font-size="14.00">P: 0.000000; M: 1</text>
</g>
<!-- ACGAC&#45;&gt;CGACG -->
<g id="edge15" class="edge"><title>ACGAC&#45;&gt;CGACG</title>
<path fill="none" stroke="red" d="M38.8261,-408.035C36.4625,-394.155 35.4088,-374.517 43.8962,-360 48.3584,-352.368 55.1856,-346.236 62.6572,-341.372"/>
<polygon fill="red" stroke="red" points="64.6884,-344.242 71.6212,-336.23 61.2054,-338.17 64.6884,-344.242"/>
<text text-anchor="middle" x="93.8962" y="-378.8" font-family="Times New Roman,serif" font-size="14.00">L: 1; W: 1;</text>
<text text-anchor="middle" x="93.8962" y="-363.8" font-family="Times New Roman,serif" font-size="14.00">P: 0.000000; M: 0</text>
</g>
<!-- GCTCC -->
<g id="node12" class="node"><title>GCTCC</title>
<ellipse fill="green" stroke="green" cx="165.896" cy="-732" rx="42.4939" ry="18"/>
<text text-anchor="middle" x="165.896" y="-728.3" font-family="Times New Roman,serif" font-size="14.00">GCTCC</text>
</g>
<!-- GCTCC&#45;&gt;CTCCG -->
<g id="edge8" class="edge"><title>GCTCC&#45;&gt;CTCCG</title>
<path fill="none" stroke="green" d="M165.896,-713.581C165.896,-698.382 165.896,-676.067 165.896,-658.464"/>
<polygon fill="green" stroke="green" points="169.396,-658.219 165.896,-648.219 162.396,-658.219 169.396,-658.219"/>
<text text-anchor="middle" x="215.896" y="-684.8" font-family="Times New Roman,serif" font-size="14.00">L: 1; W: 0;</text>
<text text-anchor="middle" x="215.896" y="-669.8" font-family="Times New Roman,serif" font-size="14.00">P: 0.000000; M: 1</text>
</g>
<!-- CGCTA&#45;&gt;GCTAC -->
<g id="edge7" class="edge"><title>CGCTA&#45;&gt;GCTAC</title>
<path fill="none" stroke="red" d="M42.8962,-815.581C42.8962,-800.382 42.8962,-778.067 42.8962,-760.464"/>
<polygon fill="red" stroke="red" points="46.3963,-760.219 42.8962,-750.219 39.3963,-760.219 46.3963,-760.219"/>
<text text-anchor="middle" x="92.8962" y="-786.8" font-family="Times New Roman,serif" font-size="14.00">L: 1; W: 1;</text>
<text text-anchor="middle" x="92.8962" y="-771.8" font-family="Times New Roman,serif" font-size="14.00">P: 0.000000; M: 0</text>
</g>
<!-- CGACG&#45;&gt;GACGT -->
<g id="edge11" class="edge"><title>CGACG&#45;&gt;GACGT</title>
<path fill="none" stroke="green" d="M103.896,-305.581C103.896,-290.382 103.896,-268.067 103.896,-250.464"/>
<polygon fill="green" stroke="green" points="107.396,-250.219 103.896,-240.219 100.396,-250.219 107.396,-250.219"/>
<text text-anchor="middle" x="153.896" y="-276.8" font-family="Times New Roman,serif" font-size="14.00">L: 1; W: 0;</text>
<text text-anchor="middle" x="153.896" y="-261.8" font-family="Times New Roman,serif" font-size="14.00">P: 0.000000; M: 1</text>
</g>
<!-- CGCTC&#45;&gt;GCTCC -->
<g id="edge5" class="edge"><title>CGCTC&#45;&gt;GCTCC</title>
<path fill="none" stroke="green" d="M166.722,-815.581C166.57,-800.382 166.347,-778.067 166.171,-760.464"/>
<polygon fill="green" stroke="green" points="169.668,-760.184 166.068,-750.219 162.669,-760.254 169.668,-760.184"/>
<text text-anchor="middle" x="216.896" y="-786.8" font-family="Times New Roman,serif" font-size="14.00">L: 1; W: 0;</text>
<text text-anchor="middle" x="216.896" y="-771.8" font-family="Times New Roman,serif" font-size="14.00">P: 0.000000; M: 1</text>
</g>
</g>
</svg>
