<?xml version="1.0" encoding="UTF-8" standalone="no"?>
<!DOCTYPE svg PUBLIC "-//W3C//DTD SVG 1.1//EN"
 "http://www.w3.org/Graphics/SVG/1.1/DTD/svg11.dtd">
<!-- Generated by graphviz version 2.38.0 (20140413.2041)
 -->
<!-- Title: G Pages: 1 -->
<svg width="147pt" height="900pt"
 viewBox="0.00 0.00 146.59 899.92" xmlns="http://www.w3.org/2000/svg" xmlns:xlink="http://www.w3.org/1999/xlink">
<g id="graph0" class="graph" transform="scale(1 1) rotate(0) translate(4 895.921)">
<title>G</title>
<polygon fill="white" stroke="none" points="-4,4 -4,-895.921 142.593,-895.921 142.593,4 -4,4"/>
<!-- CTCCG -->
<g id="node1" class="node"><title>CTCCG</title>
<ellipse fill="green" stroke="green" cx="69.2965" cy="-386.09" rx="69.0935" ry="26.7407"/>
<text text-anchor="middle" x="69.2965" y="-389.89" font-family="Times New Roman,serif" font-size="14.00">CTCCG</text>
<text text-anchor="middle" x="69.2965" y="-374.89" font-family="Times New Roman,serif" font-size="14.00">IN=1; OUT=1</text>
</g>
<!-- TCCGA -->
<g id="node5" class="node"><title>TCCGA</title>
<ellipse fill="green" stroke="green" cx="69.2965" cy="-266.35" rx="69.0935" ry="26.7407"/>
<text text-anchor="middle" x="69.2965" y="-270.15" font-family="Times New Roman,serif" font-size="14.00">TCCGA</text>
<text text-anchor="middle" x="69.2965" y="-255.15" font-family="Times New Roman,serif" font-size="14.00">IN=1; OUT=1</text>
</g>
<!-- CTCCG&#45;&gt;TCCGA -->
<g id="edge1" class="edge"><title>CTCCG&#45;&gt;TCCGA</title>
<path fill="none" stroke="green" d="M69.2965,-358.96C69.2965,-342.65 69.2965,-321.423 69.2965,-303.51"/>
<polygon fill="green" stroke="green" points="72.7966,-303.408 69.2965,-293.408 65.7966,-303.408 72.7966,-303.408"/>
<text text-anchor="middle" x="103.796" y="-330.02" font-family="Times New Roman,serif" font-size="14.00">L: 1; W: 0;</text>
<text text-anchor="middle" x="103.796" y="-315.02" font-family="Times New Roman,serif" font-size="14.00">P: 100; M: 1</text>
</g>
<!-- ACGCT -->
<g id="node2" class="node"><title>ACGCT</title>
<ellipse fill="green" stroke="green" cx="69.2965" cy="-745.311" rx="69.0935" ry="26.7407"/>
<text text-anchor="middle" x="69.2965" y="-749.111" font-family="Times New Roman,serif" font-size="14.00">ACGCT</text>
<text text-anchor="middle" x="69.2965" y="-734.111" font-family="Times New Roman,serif" font-size="14.00">IN=1; OUT=1</text>
</g>
<!-- CGCTC -->
<g id="node8" class="node"><title>CGCTC</title>
<ellipse fill="green" stroke="green" cx="69.2965" cy="-625.571" rx="69.0935" ry="26.7407"/>
<text text-anchor="middle" x="69.2965" y="-629.371" font-family="Times New Roman,serif" font-size="14.00">CGCTC</text>
<text text-anchor="middle" x="69.2965" y="-614.371" font-family="Times New Roman,serif" font-size="14.00">IN=1; OUT=1</text>
</g>
<!-- ACGCT&#45;&gt;CGCTC -->
<g id="edge2" class="edge"><title>ACGCT&#45;&gt;CGCTC</title>
<path fill="none" stroke="green" d="M69.2965,-718.18C69.2965,-701.87 69.2965,-680.643 69.2965,-662.73"/>
<polygon fill="green" stroke="green" points="72.7966,-662.628 69.2965,-652.628 65.7966,-662.628 72.7966,-662.628"/>
<text text-anchor="middle" x="103.796" y="-689.241" font-family="Times New Roman,serif" font-size="14.00">L: 1; W: 0;</text>
<text text-anchor="middle" x="103.796" y="-674.241" font-family="Times New Roman,serif" font-size="14.00">P: 100; M: 1</text>
</g>
<!-- CCGAC -->
<g id="node3" class="node"><title>CCGAC</title>
<ellipse fill="green" stroke="green" cx="69.2965" cy="-146.61" rx="69.0935" ry="26.7407"/>
<text text-anchor="middle" x="69.2965" y="-150.41" font-family="Times New Roman,serif" font-size="14.00">CCGAC</text>
<text text-anchor="middle" x="69.2965" y="-135.41" font-family="Times New Roman,serif" font-size="14.00">IN=1; OUT=1</text>
</g>
<!-- CGACE -->
<g id="node7" class="node"><title>CGACE</title>
<ellipse fill="blue" stroke="blue" cx="69.2965" cy="-26.8701" rx="69.0935" ry="26.7407"/>
<text text-anchor="middle" x="69.2965" y="-30.6701" font-family="Times New Roman,serif" font-size="14.00">CGACE</text>
<text text-anchor="middle" x="69.2965" y="-15.6701" font-family="Times New Roman,serif" font-size="14.00">IN=1; OUT=0</text>
</g>
<!-- CCGAC&#45;&gt;CGACE -->
<g id="edge6" class="edge"><title>CCGAC&#45;&gt;CGACE</title>
<path fill="none" stroke="green" d="M69.2965,-119.48C69.2965,-103.169 69.2965,-81.9427 69.2965,-64.0294"/>
<polygon fill="green" stroke="green" points="72.7966,-63.9273 69.2965,-53.9274 65.7966,-63.9274 72.7966,-63.9273"/>
<text text-anchor="middle" x="103.796" y="-90.5401" font-family="Times New Roman,serif" font-size="14.00">L: 1; W: 0;</text>
<text text-anchor="middle" x="103.796" y="-75.5401" font-family="Times New Roman,serif" font-size="14.00">P: 100; M: 1</text>
</g>
<!-- BACGC -->
<g id="node4" class="node"><title>BACGC</title>
<ellipse fill="yellow" stroke="yellow" cx="69.2965" cy="-865.051" rx="69.0935" ry="26.7407"/>
<text text-anchor="middle" x="69.2965" y="-868.851" font-family="Times New Roman,serif" font-size="14.00">BACGC</text>
<text text-anchor="middle" x="69.2965" y="-853.851" font-family="Times New Roman,serif" font-size="14.00">IN=0; OUT=1</text>
</g>
<!-- BACGC&#45;&gt;ACGCT -->
<g id="edge7" class="edge"><title>BACGC&#45;&gt;ACGCT</title>
<path fill="none" stroke="green" d="M69.2965,-837.921C69.2965,-821.61 69.2965,-800.383 69.2965,-782.47"/>
<polygon fill="green" stroke="green" points="72.7966,-782.368 69.2965,-772.368 65.7966,-782.368 72.7966,-782.368"/>
<text text-anchor="middle" x="103.796" y="-808.981" font-family="Times New Roman,serif" font-size="14.00">L: 1; W: 0;</text>
<text text-anchor="middle" x="103.796" y="-793.981" font-family="Times New Roman,serif" font-size="14.00">P: 100; M: 1</text>
</g>
<!-- TCCGA&#45;&gt;CCGAC -->
<g id="edge4" class="edge"><title>TCCGA&#45;&gt;CCGAC</title>
<path fill="none" stroke="green" d="M69.2965,-239.22C69.2965,-222.91 69.2965,-201.683 69.2965,-183.769"/>
<polygon fill="green" stroke="green" points="72.7966,-183.667 69.2965,-173.667 65.7966,-183.668 72.7966,-183.667"/>
<text text-anchor="middle" x="103.796" y="-210.28" font-family="Times New Roman,serif" font-size="14.00">L: 1; W: 0;</text>
<text text-anchor="middle" x="103.796" y="-195.28" font-family="Times New Roman,serif" font-size="14.00">P: 100; M: 1</text>
</g>
<!-- GCTCC -->
<g id="node6" class="node"><title>GCTCC</title>
<ellipse fill="green" stroke="green" cx="69.2965" cy="-505.831" rx="69.0935" ry="26.7407"/>
<text text-anchor="middle" x="69.2965" y="-509.631" font-family="Times New Roman,serif" font-size="14.00">GCTCC</text>
<text text-anchor="middle" x="69.2965" y="-494.631" font-family="Times New Roman,serif" font-size="14.00">IN=1; OUT=1</text>
</g>
<!-- GCTCC&#45;&gt;CTCCG -->
<g id="edge5" class="edge"><title>GCTCC&#45;&gt;CTCCG</title>
<path fill="none" stroke="green" d="M69.2965,-478.7C69.2965,-462.39 69.2965,-441.163 69.2965,-423.25"/>
<polygon fill="green" stroke="green" points="72.7966,-423.148 69.2965,-413.148 65.7966,-423.148 72.7966,-423.148"/>
<text text-anchor="middle" x="103.796" y="-449.76" font-family="Times New Roman,serif" font-size="14.00">L: 1; W: 0;</text>
<text text-anchor="middle" x="103.796" y="-434.76" font-family="Times New Roman,serif" font-size="14.00">P: 100; M: 1</text>
</g>
<!-- CGCTC&#45;&gt;GCTCC -->
<g id="edge3" class="edge"><title>CGCTC&#45;&gt;GCTCC</title>
<path fill="none" stroke="green" d="M69.2965,-598.44C69.2965,-582.13 69.2965,-560.903 69.2965,-542.99"/>
<polygon fill="green" stroke="green" points="72.7966,-542.888 69.2965,-532.888 65.7966,-542.888 72.7966,-542.888"/>
<text text-anchor="middle" x="103.796" y="-569.501" font-family="Times New Roman,serif" font-size="14.00">L: 1; W: 0;</text>
<text text-anchor="middle" x="103.796" y="-554.501" font-family="Times New Roman,serif" font-size="14.00">P: 100; M: 1</text>
</g>
</g>
</svg>
